<svg xmlns="http://www.w3.org/2000/svg" height="512" width="512" data-name="Layer 1"><rect width="100%" height="100%" fill="none"/><linearGradient id="a" x1=".5" x2=".5" y1="1.053" y2=".062"><stop offset=".322" stop-color="#a163f5"/><stop offset=".466" stop-color="#b074ee"/><stop offset=".752" stop-color="#d8a1dd"/><stop offset=".898" stop-color="#efbad3"/></linearGradient><g class="currentLayer"><path d="M351.686 300.575a6 6 0 00-8.485 0l-7.761 7.76-14.975-14.974c45.82-59.179 41.588-144.851-12.7-199.135-58.865-58.874-154.665-58.874-213.539 0s-58.874 154.669 0 213.543a151.237 151.237 0 00199.135 12.7l14.974 14.975-7.76 7.761a6 6 0 000 8.485l99.725 99.725a36.142 36.142 0 1051.115-51.115zm-248.975-1.291c-54.195-54.2-54.195-142.377 0-196.573a139.157 139.157 0 01196.573 0c54.195 54.2 54.195 142.377 0 196.573s-142.377 54.195-196.573 0zm199.868 13.429q2.637-2.4 5.19-4.944t4.944-5.19l14.242 14.242-10.134 10.134zm10.724 34.73l34.14-34.14 20.685 20.684-34.141 34.141zm129.626 95.486a24.167 24.167 0 01-34.14 0l-66.316-66.316 34.14-34.14 66.316 66.316a24.167 24.167 0 010 34.14z" fill="#6a983c" stroke="#6a983c"/><path d="M114.806 169.826a6 6 0 00-7.466 4.032 102.761 102.761 0 007.485 76.811 6 6 0 0010.611-5.606 90.662 90.662 0 01-6.6-67.771 6 6 0 00-4.03-7.466zM128.005 156.613c1.4-2.3 2.915-4.571 4.515-6.737a6 6 0 10-9.653-7.128 101.06 101.06 0 00-5.124 7.646 6 6 0 1010.262 6.219z" fill="#6a983c"/><path d="M288.823 113.322a122.27 122.27 0 00-57.385-32.57A6 6 0 00224 86.58v.048a6.012 6.012 0 004.544 5.812 113.689 113.689 0 0151.794 29.368c43.665 43.665 43.59 114.714-.075 158.38a112.166 112.166 0 01-158.418 0c-43.665-43.666-43.533-114.715.132-158.38A109.907 109.907 0 01188.6 89.765a6 6 0 10-1.262-11.926 122.08 122.08 0 00-73.865 35.483c-48.344 48.345-48.419 127.007-.076 175.351a124.156 124.156 0 00175.37 0c48.344-48.344 48.4-127.006.056-175.351z" fill="#6a983c"/></g></svg>